<?xml version="1.0" encoding="UTF-8"?>
<svg version="1.1" xmlns="http://www.w3.org/2000/svg" width="626" height="626">
<path d="M0 0 C206.58 0 413.16 0 626 0 C626 206.58 626 413.16 626 626 C419.42 626 212.84 626 0 626 C0 419.42 0 212.84 0 0 Z " fill="#FEFEFE" transform="translate(0,0)"/>
<path d="M0 0 C14.91241098 0.3554806 29.34135556 2.27986341 44 5 C44.90024902 5.1645166 45.80049805 5.3290332 46.72802734 5.49853516 C71.65152608 10.20010921 99.00963101 18.60301078 121.3125 30.75 C122.52305054 31.4011377 122.52305054 31.4011377 123.75805664 32.06542969 C125.39908244 32.95118042 127.03804705 33.84076184 128.67480469 34.734375 C130.79883619 35.89050471 132.93259927 37.02569816 135.0703125 38.15625 C153.64268541 48.12305052 170.6978902 60.85056621 185.94335938 75.37182617 C188.47401733 77.75232367 190.77406551 79.66539353 194 81 C194.63164062 80.33355469 195.26328125 79.66710937 195.9140625 78.98046875 C203.10520583 71.57172599 210.71126787 65.14534912 219 59 C219.65242676 58.5138623 220.30485352 58.02772461 220.97705078 57.52685547 C231.13615731 50.0109277 241.66234496 43.39114339 252.71386719 37.26855469 C254.85203296 36.08210559 256.97690449 34.87446748 259.1015625 33.6640625 C276.94277383 23.68235828 296.38810962 16.62959359 316 11 C317.89878906 10.45085937 317.89878906 10.45085937 319.8359375 9.890625 C333.67639773 6.0542501 347.64595728 3.18131748 361.875 1.25 C363.24591797 1.05845337 363.24591797 1.05845337 364.64453125 0.86303711 C371.7790952 -0.04733632 378.81395382 -0.12875655 386 0 C386.41660889 0.78834229 386.83321777 1.57668457 387.26245117 2.38891602 C397.70000286 22.12295323 397.70000286 22.12295323 408.5625 41.625 C413.3657901 50.03262636 418.00641292 58.51893382 422.5625 67.0625 C423.03577728 67.94983826 423.03577728 67.94983826 423.51861572 68.85510254 C424.46300994 70.62601603 425.40730164 72.39698415 426.3515625 74.16796875 C433.59816964 87.75774466 440.92193206 101.30291178 448.671875 114.61328125 C450 117 450 117 450 118 C448.81148437 118.08040527 447.62296875 118.16081055 446.3984375 118.24365234 C441.91016258 118.54851003 437.42231873 118.85937026 432.93457031 119.171875 C431.00694536 119.30530129 429.07921293 119.43718548 427.15136719 119.56738281 C415.37421108 120.36396465 403.69016246 121.34246337 392 123 C390.90236328 123.15388184 389.80472656 123.30776367 388.67382812 123.46630859 C380.23086662 124.70754227 371.85941094 126.29313764 363.5 128 C362.78343231 128.14595612 362.06686462 128.29191223 361.32858276 128.44229126 C349.12878228 130.94970922 337.08293433 133.93181402 325.0625 137.1875 C324.28358398 137.39737549 323.50466797 137.60725098 322.70214844 137.82348633 C314.90505586 139.93471689 307.21737829 142.16550962 299.6574707 145.0324707 C296.69751785 146.1101274 293.71163552 147.02985541 290.6953125 147.9375 C283.67026625 150.06718078 276.76925133 152.48136842 269.875 155 C269.23868652 155.23211182 268.60237305 155.46422363 267.94677734 155.70336914 C252.85079896 161.23456261 237.58459111 167.24324232 223.4375 174.90625 C221 176 221 176 218 175 C226.74315616 168.54703883 235.63172036 162.62161784 245.02294922 157.15625 C247.06641611 155.96115748 249.09844354 154.74829157 251.12890625 153.53125 C275.21757455 139.13102178 300.55395761 126.47566578 327 117 C327.80872559 116.70931641 328.61745117 116.41863281 329.45068359 116.11914062 C334.52136734 114.30548901 339.60511402 112.53292079 344.70019531 110.7890625 C346.77956744 110.07563036 348.85497651 109.35184362 350.9296875 108.625 C360.81638175 105.22312671 370.846156 102.48258637 381 100 C382.18577637 99.70875244 382.18577637 99.70875244 383.39550781 99.41162109 C384.17506836 99.22809082 384.95462891 99.04456055 385.7578125 98.85546875 C386.45277832 98.69071045 387.14774414 98.52595215 387.86376953 98.35620117 C390.27293105 97.9544907 392.56192287 97.94167152 395 98 C394.72849121 96.92443848 394.45698242 95.84887695 394.17724609 94.74072266 C384.89046448 57.92058099 384.89046448 57.92058099 380.92089844 40.390625 C379.29548442 33.21703649 377.53743971 26.08930362 375.6640625 18.9765625 C375 16 375 16 375 12 C317.48748171 17.11264831 262.05273627 36.64381756 217.70166016 74.55859375 C216.10616694 75.91007036 214.48997732 77.22739226 212.85546875 78.53125 C211.02445891 79.99405403 209.21011123 81.47810975 207.41796875 82.98828125 C205 85 205 85 202.55078125 86.73046875 C199.13527901 89.43068256 197.19146129 91.55626553 196.60620117 95.96948242 C196.63677612 97.80023315 196.63677612 97.80023315 196.66796875 99.66796875 C196.67920776 100.38305099 196.69044678 101.09813324 196.70202637 101.83488464 C197.01093565 115.07503347 198.01143431 128.31131148 198.85424805 141.52648926 C199.23891619 147.55972238 199.61853871 153.5932513 199.99127197 159.62723351 C200.1210011 161.70546969 200.25536671 163.78336792 200.39013672 165.86128235 C200.87138449 173.58699763 201.11395369 181.25945801 201 189 C201.77138306 189.30044724 202.54276611 189.60089447 203.33752441 189.91044617 C208.35904872 191.96538372 212.87510249 194.99772155 217.5 197.8125 C218.53253906 198.42931641 219.56507813 199.04613281 220.62890625 199.68164062 C225.64609351 202.72755882 230.13708957 205.55257023 234 210 C233.23816406 210.42410156 232.47632813 210.84820313 231.69140625 211.28515625 C218.5484926 218.75085627 200.98093211 230.03813578 194 244 C193.34 244 192.68 244 192 244 C190.73330362 242.54894875 189.53660763 241.03646906 188.375 239.5 C178.13017727 226.44611298 165.74649717 217.39703326 151 210 C153.48066626 207.26658661 156.23752965 205.47063764 159.3671875 203.53125 C160.41777344 202.87769531 161.46835937 202.22414063 162.55078125 201.55078125 C164.19626953 200.53564453 164.19626953 200.53564453 165.875 199.5 C166.96425781 198.82324219 168.05351562 198.14648438 169.17578125 197.44921875 C172.11328484 195.62631261 175.05285981 193.80728338 178 192 C178.89992676 191.43345703 179.79985352 190.86691406 180.72705078 190.28320312 C183 189 183 189 185 189 C184.97679687 188.09507812 184.95359375 187.19015625 184.9296875 186.2578125 C184.75115639 175.30790429 185.28495677 164.42563064 185.9375 153.5 C186.00284943 152.39208099 186.00284943 152.39208099 186.06951904 151.26177979 C186.85788573 138.02242879 186.85788573 138.02242879 187.5 132.0390625 C188.19495092 125.42485493 188.62529454 118.80025937 188.94213867 112.15869141 C189.02261674 110.63173018 189.11907624 109.10553044 189.23120117 107.58056641 C190.10157053 98.54397024 190.10157053 98.54397024 187.28076172 90.20019531 C184.72387266 87.60457427 182.25667793 85.62833897 179 84 C179 83.34 179 82.68 179 82 C178.44570313 81.75894531 177.89140625 81.51789063 177.3203125 81.26953125 C174.48977565 79.72083685 172.31025556 77.80707428 169.875 75.6875 C145.68204952 55.20725433 117.82557705 39.31589606 87.96582031 28.73364258 C85.74361458 27.90431716 83.57217278 26.97638477 81.38671875 26.0546875 C75.20508979 23.5671376 68.84071178 22.00519748 62.375 20.4375 C61.13097412 20.13303955 59.88694824 19.8285791 58.60522461 19.51489258 C42.74571582 15.67703011 27.25492877 13.32059442 11 12 C10.91234375 13.00804687 10.8246875 14.01609375 10.734375 15.0546875 C9.96815399 21.1603437 8.32335816 27.07470213 6.7911377 33.02294922 C5.87067922 36.59847257 4.96632023 40.17805291 4.0625 43.7578125 C3.88309875 44.46754211 3.70369751 45.17727173 3.51885986 45.9085083 C2.00605896 51.91916406 0.59878247 57.9503861 -0.75 64 C-2.69192403 72.70611866 -4.79582031 81.35653556 -7 90 C-7.66915207 92.66605199 -8.33471046 95.33298026 -9 98 C-7.5459375 98.12955078 -7.5459375 98.12955078 -6.0625 98.26171875 C3.44539906 99.2165821 12.02545007 101.26775341 21.05273438 104.34863281 C24.09654664 105.3667987 27.17596351 106.26528905 30.25 107.1875 C58.24324194 115.88676417 85.83522181 126.45160736 111.52441406 140.64453125 C114.30178975 142.16524031 117.09847041 143.64631516 119.8984375 145.125 C131.99739329 151.54148845 143.68587127 158.28298953 155 166 C155.74910645 166.50934082 156.49821289 167.01868164 157.27001953 167.54345703 C161.86321581 170.67207216 166.43821459 173.82578323 171 177 C170.34 177.33 169.68 177.66 169 178 C167.27368164 177.37011719 167.27368164 177.37011719 165.16015625 176.296875 C164.35811768 175.89895752 163.5560791 175.50104004 162.72973633 175.09106445 C161.84954834 174.64851318 160.96936035 174.20596191 160.0625 173.75 C148.30098509 167.99016109 136.2571956 163.05750317 124.08935547 158.22802734 C121.34790665 157.13829385 118.61256022 156.03487621 115.87890625 154.92578125 C108.13707872 151.81265674 100.39348423 149.09418133 92.35913086 146.83569336 C88.19359545 145.66328864 84.1108139 144.36655184 80.03149414 142.92358398 C65.66875165 137.87477104 50.79741455 134.50870658 36 131 C34.62110596 130.67104736 34.62110596 130.67104736 33.21435547 130.33544922 C1.31991142 122.83897594 -31.37036614 119.93017332 -64 118 C-59.61433859 108.94670499 -54.9959042 100.1069717 -50 91.375 C-44.82930337 82.3356136 -39.87012655 73.20313458 -35 64 C-29.7529583 54.0896145 -24.38502538 44.26864728 -18.8215332 34.53100586 C-12.33149483 23.13864706 -6.17231665 11.56663366 0 0 Z " fill="#0671B9" transform="translate(120,333)"/>
<path d="M0 0 C2.03559187 3.75829061 2.41780846 7.10826086 2.75 11.3125 C6.31889141 48.30273474 17.13318486 84.67963252 31 119 C35.59358067 115.76211792 39.79425279 112.303803 43.875 108.4375 C70.37476202 84.06358334 104.84282365 66.36366641 138.6875 54.875 C140.04307007 54.41323364 140.04307007 54.41323364 141.42602539 53.94213867 C142.2586792 53.66990479 143.09133301 53.3976709 143.94921875 53.1171875 C144.68487061 52.87597168 145.42052246 52.63475586 146.1784668 52.38623047 C148 52 148 52 150 53 C148.98292969 53.81791016 148.98292969 53.81791016 147.9453125 54.65234375 C142.26720198 59.25302887 136.74574832 63.95165976 131.34375 68.875 C129.19307289 70.82494724 127.01175029 72.73026129 124.8125 74.625 C118.33475591 80.28327044 112.57183455 86.45816997 107 93 C106.26007813 93.85078125 105.52015625 94.7015625 104.7578125 95.578125 C78.84097192 125.88344018 58.7770939 162.70769955 51 202 C50.78585449 203.04824951 50.78585449 203.04824951 50.56738281 204.11767578 C47.87084727 217.37311734 46.7983956 230.11043689 46.8125 243.625 C46.81141235 244.687827 46.81141235 244.687827 46.81030273 245.77212524 C46.81134613 254.98986253 47.07603953 264.02182575 48.5625 273.13671875 C48.97132203 275.8123129 49.08017035 278.2992615 49 281 C44.01781659 276.6093931 40.99301861 271.40128328 37.6875 265.6875 C37.11499512 264.7063623 36.54249023 263.72522461 35.95263672 262.71435547 C31.2816026 254.63661739 26.92506475 246.46458254 23 238 C22.70432129 237.36465332 22.40864258 236.72930664 22.10400391 236.07470703 C-12.0745459 161.93125522 -16.816463 79.19485197 0 0 Z " fill="#0271BA" transform="translate(273,52)"/>
<path d="M0 0 C2.13006631 2.13006631 2.61487943 3.34008815 3.625 6.125 C5.77491843 11.71153046 8.43082687 16.98138053 11.18212891 22.28955078 C13.14748142 26.12269855 14.75212498 29.85756951 16 34 C16.66 34 17.32 34 18 34 C18.67154933 35.28913487 19.33708859 36.58140204 20 37.875 C20.37125 38.59429687 20.7425 39.31359375 21.125 40.0546875 C22 42 22 42 22 44 C22.66 44 23.32 44 24 44 C26 47 26 47 26 50 C26.66 50 27.32 50 28 50 C28.66 51.98 29.32 53.96 30 56 C30.66 56 31.32 56 32 56 C36 61.41176471 36 61.41176471 36 64 C36.66 64 37.32 64 38 64 C39.5078125 65.75 39.5078125 65.75 41.125 68 C41.66382813 68.7425 42.20265625 69.485 42.7578125 70.25 C43.16773438 70.8275 43.57765625 71.405 44 72 C46.2477975 69.94766315 47.0022242 68.99332739 48 66 C48.66 66 49.32 66 50 66 C50.2475 65.29488281 50.495 64.58976562 50.75 63.86328125 C52.16103659 60.63112557 53.9250726 58.03671098 56 55.1875 C56.70125 54.21167969 57.4025 53.23585937 58.125 52.23046875 C58.74375 51.49441406 59.3625 50.75835937 60 50 C60.66 50 61.32 50 62 50 C62.2475 49.44828125 62.495 48.8965625 62.75 48.328125 C64.24234474 45.54863293 66.03672523 43.2185293 68 40.75 C68.70125 39.85796875 69.4025 38.9659375 70.125 38.046875 C70.74375 37.37140625 71.3625 36.6959375 72 36 C72.66 36 73.32 36 74 36 C74 35.34 74 34.68 74 34 C74.66 34 75.32 34 76 34 C76 33.34 76 32.68 76 32 C76.66 32 77.32 32 78 32 C78 31.34 78 30.68 78 30 C79.35546875 28.6328125 79.35546875 28.6328125 81.1875 27.125 C82.14269531 26.33609375 82.14269531 26.33609375 83.1171875 25.53125 C83.73851562 25.0259375 84.35984375 24.520625 85 24 C85.928125 23.21625 86.85625 22.4325 87.8125 21.625 C90 20 90 20 92 20 C92 19.34 92 18.68 92 18 C93.6796875 16.4921875 93.6796875 16.4921875 95.875 14.875 C96.59429687 14.33617187 97.31359375 13.79734375 98.0546875 13.2421875 C100 12 100 12 102 12 C102 11.34 102 10.68 102 10 C103.98 9.34 105.96 8.68 108 8 C108 7.34 108 6.68 108 6 C109.98 5.34 111.96 4.68 114 4 C112.34643078 7.58273331 110.32019297 10.80973467 108 14 C107.34 14 106.68 14 106 14 C105.855625 14.61875 105.71125 15.2375 105.5625 15.875 C105 18 105 18 104 20 C103.34 20 102.68 20 102 20 C101.86271484 20.76570313 101.86271484 20.76570313 101.72265625 21.546875 C100.70979202 24.98513843 99.06779568 28.07334465 97.4375 31.25 C97.10814453 31.8996875 96.77878906 32.549375 96.43945312 33.21875 C95.62992435 34.81434294 94.81544958 36.40742483 94 38 C93.34 38 92.68 38 92 38 C91.9071875 39.1446875 91.9071875 39.1446875 91.8125 40.3125 C90.87814187 44.55304843 89.22738994 48.04168347 87.39453125 51.9609375 C82.93336166 61.68303818 79.76168229 71.53025277 77.45800781 81.95605469 C77.14957936 83.3324742 76.81496745 84.70325657 76.45605469 86.06738281 C74.37751863 94.71989338 74.60380838 103.52985449 74.625 112.375 C74.62554382 113.22315277 74.62608765 114.07130554 74.62664795 114.94515991 C74.68418069 134.42275327 78.11553937 150.83428035 85 169 C86.02903598 171.99147262 87.01601527 174.99337998 88 178 C86.57692193 177.05128129 85.1543246 176.10183223 83.734375 175.1484375 C82.04790563 174.0317213 80.33665816 172.95271069 78.625 171.875 C77.75875 171.25625 76.8925 170.6375 76 170 C76 169.34 76 168.68 76 168 C75.34 168 74.68 168 74 168 C74 167.34 74 166.68 74 166 C73.34 166 72.68 166 72 166 C72 165.34 72 164.68 72 164 C71.34 164 70.68 164 70 164 C70 163.34 70 162.68 70 162 C69.34 162 68.68 162 68 162 C68 161.34 68 160.68 68 160 C67.34 160 66.68 160 66 160 C66 159.34 66 158.68 66 158 C65.34 158 64.68 158 64 158 C64 157.34 64 156.68 64 156 C63.34 156 62.68 156 62 156 C60.64613064 154.34997172 59.31321858 152.6825613 58 151 C57.34 150.67 56.68 150.34 56 150 C55.27306096 148.02111039 54.60183749 146.02045442 54 144 C53.34 144 52.68 144 52 144 C52 143.34 52 142.68 52 142 C51.34 142 50.68 142 50 142 C48.30859375 139.69921875 48.30859375 139.69921875 46.4375 136.6875 C45.81746094 135.70136719 45.19742188 134.71523438 44.55859375 133.69921875 C43 131 43 131 42 128 C41.34 128 40.68 128 40 128 C39.67386719 127.40832031 39.34773438 126.81664062 39.01171875 126.20703125 C37.1212878 122.78864136 35.23913204 119.38755883 33.1875 116.0625 C32 114 32 114 32 112 C31.34 112 30.68 112 30 112 C28.74335022 109.09399739 28 107.20395416 28 104 C27.34 104 26.68 104 26 104 C23.38207111 98.95113714 21.07677744 93.89385628 19.015625 88.59375 C18.318803 86.81417383 17.59874128 85.0435751 16.859375 83.28125 C16.49328125 82.4046875 16.1271875 81.528125 15.75 80.625 C15.41484375 79.83351563 15.0796875 79.04203125 14.734375 78.2265625 C14 76 14 76 14 72 C13.34 72 12.68 72 12 72 C11.75765625 71.00742188 11.5153125 70.01484375 11.265625 68.9921875 C10.9276769 67.61964538 10.5890862 66.24726139 10.25 64.875 C10.07170654 64.15231934 9.89341309 63.42963867 9.7097168 62.68505859 C8.52931693 57.95828876 7.2155853 53.291672 5.8125 48.625 C4.36549799 43.68484469 3.47343612 39.02729767 3.17578125 33.890625 C3.10702562 31.91197569 3.10702562 31.91197569 2 30 C1.59718676 27.20676953 1.24425039 24.42900585 0.9375 21.625 C0.84807129 20.81949707 0.75864258 20.01399414 0.66650391 19.18408203 C-0.00417606 12.77493652 -0.2274419 6.44418708 0 0 Z " fill="#F4941F" transform="translate(142,170)"/>
<path d="M0 0 C0.33 0 0.66 0 1 0 C1.41833902 9.63729155 0.44945081 18.40755128 -1.27734375 27.8515625 C-1.86889166 31.1076416 -2.26112844 34.3214571 -2.5 37.625 C-2.81207785 41.24755068 -3.7234851 44.21023694 -5.12890625 47.5859375 C-6.26942182 50.7466488 -6.98903229 53.98290131 -7.75 57.25 C-10.90579759 70.50529804 -15.68832695 83.46313194 -21 96 C-21.66 96 -22.32 96 -23 96 C-23 97.32 -23 98.64 -23 100 C-23.66 100 -24.32 100 -25 100 C-25 101.32 -25 102.64 -25 104 C-25.66 104 -26.32 104 -27 104 C-27.144375 104.5775 -27.28875 105.155 -27.4375 105.75 C-27.95833333 107.83333333 -28.47916667 109.91666667 -29 112 C-29.66 112 -30.32 112 -31 112 C-31.66 113.98 -32.32 115.96 -33 118 C-33.66 118 -34.32 118 -35 118 C-35.103125 118.53625 -35.20625 119.0725 -35.3125 119.625 C-36.18092697 122.62502044 -37.55620296 125.2379535 -39 128 C-39.66 128 -40.32 128 -41 128 C-41 128.66 -41 129.32 -41 130 C-41.66 130 -42.32 130 -43 130 C-43.144375 130.61875 -43.28875 131.2375 -43.4375 131.875 C-44 134 -44 134 -45 136 C-45.66 136 -46.32 136 -47 136 C-47.28875 136.763125 -47.5775 137.52625 -47.875 138.3125 C-49 141 -49 141 -51 144 C-51.66 144 -52.32 144 -53 144 C-53.2475 144.55171875 -53.495 145.1034375 -53.75 145.671875 C-55.24234474 148.45136707 -57.03672523 150.7814707 -59 153.25 C-59.70125 154.14203125 -60.4025 155.0340625 -61.125 155.953125 C-62.053125 156.96632813 -62.053125 156.96632813 -63 158 C-63.66 158 -64.32 158 -65 158 C-65 158.66 -65 159.32 -65 160 C-65.66 160 -66.32 160 -67 160 C-67 160.66 -67 161.32 -67 162 C-67.66 162 -68.32 162 -69 162 C-69 162.66 -69 163.32 -69 164 C-69.66 164 -70.32 164 -71 164 C-71 164.66 -71 165.32 -71 166 C-71.66 166 -72.32 166 -73 166 C-73 166.66 -73 167.32 -73 168 C-74.6796875 169.5078125 -74.6796875 169.5078125 -76.875 171.125 C-77.59429687 171.66382813 -78.31359375 172.20265625 -79.0546875 172.7578125 C-81 174 -81 174 -83 174 C-83 174.66 -83 175.32 -83 176 C-84.98 176.99 -84.98 176.99 -87 178 C-85 172 -83 166 -81 160 C-80.34 160 -79.68 160 -79 160 C-79.04125 158.845 -79.0825 157.69 -79.125 156.5 C-79.14087433 152.05518699 -78.21793105 148.26275869 -77 144 C-76.34 144 -75.68 144 -75 144 C-75.01160156 143.32453125 -75.02320313 142.6490625 -75.03515625 141.953125 C-75.04417969 141.06109375 -75.05320312 140.1690625 -75.0625 139.25 C-75.07410156 138.36828125 -75.08570313 137.4865625 -75.09765625 136.578125 C-75 134 -75 134 -74.50439453 132.30175781 C-73.7972393 129.07472031 -73.83736857 125.88115007 -73.83203125 122.59375 C-73.82870285 121.87320435 -73.82537445 121.15265869 -73.82194519 120.41027832 C-73.81688918 118.8838769 -73.81453646 117.35746447 -73.81469727 115.83105469 C-73.81253357 113.53561209 -73.79442794 111.24066868 -73.77539062 108.9453125 C-73.73107128 97.52316293 -74.89458336 87.1318257 -78.40234375 76.203125 C-79.15700576 73.42123366 -79.2261595 70.86468699 -79 68 C-79.66 68 -80.32 68 -81 68 C-81.3403125 66.88625 -81.680625 65.7725 -82.03125 64.625 C-85.20655314 54.52419358 -89.06273484 45.21279202 -94.01660156 35.86230469 C-95.10434561 33.80239615 -96.18066693 31.73762202 -97.2421875 29.6640625 C-97.74661377 28.68493896 -97.74661377 28.68493896 -98.26123047 27.68603516 C-99 26 -99 26 -99 24 C-99.66 24 -100.32 24 -101 24 C-102.5078125 21.8828125 -102.5078125 21.8828125 -104.125 19.125 C-104.66382813 18.22007812 -105.20265625 17.31515625 -105.7578125 16.3828125 C-107 14 -107 14 -107 12 C-107.66 12 -108.32 12 -109 12 C-109.66 10.02 -110.32 8.04 -111 6 C-111.66 6 -112.32 6 -113 6 C-113 5.34 -113 4.68 -113 4 C-113.66 4 -114.32 4 -115 4 C-115 3.34 -115 2.68 -115 2 C-112.33333333 3.33333333 -109.66666667 4.66666667 -107 6 C-107 6.66 -107 7.32 -107 8 C-105.8553125 8.433125 -105.8553125 8.433125 -104.6875 8.875 C-102 10 -102 10 -99 12 C-99 12.66 -99 13.32 -99 14 C-98.236875 14.28875 -97.47375 14.5775 -96.6875 14.875 C-94 16 -94 16 -91 18 C-91 18.66 -91 19.32 -91 20 C-90.34 20 -89.68 20 -89 20 C-89 20.66 -89 21.32 -89 22 C-88.43539063 22.2475 -87.87078125 22.495 -87.2890625 22.75 C-78.58629291 27.50236565 -66.1031761 38.48809064 -63 48 C-62.34 48 -61.68 48 -61 48 C-61 48.66 -61 49.32 -61 50 C-60.34 50 -59.68 50 -59 50 C-59 50.66 -59 51.32 -59 52 C-58.34 52 -57.68 52 -57 52 C-53 57.41176471 -53 57.41176471 -53 60 C-52.34 60 -51.68 60 -51 60 C-50.01 62.97 -50.01 62.97 -49 66 C-48.34 66 -47.68 66 -47 66 C-46.01 67.98 -45.02 69.96 -44 72 C-40.62911733 69.72584713 -40.62911733 69.72584713 -39 66 C-38.34 66 -37.68 66 -37 66 C-37 65.34 -37 64.68 -37 64 C-36.34 64 -35.68 64 -35 64 C-34.71125 63.236875 -34.4225 62.47375 -34.125 61.6875 C-33 59 -33 59 -31 56 C-30.34 56 -29.68 56 -29 56 C-28.01 53.03 -28.01 53.03 -27 50 C-26.34 50 -25.68 50 -25 50 C-24.01 47.03 -24.01 47.03 -23 44 C-22.34 44 -21.68 44 -21 44 C-20.896875 43.46375 -20.79375 42.9275 -20.6875 42.375 C-19.81907303 39.37497956 -18.44379704 36.7620465 -17 34 C-16.34 34 -15.68 34 -15 34 C-14.87923096 33.43104004 -14.75846191 32.86208008 -14.6340332 32.27587891 C-13.95657764 29.8441343 -13.01139255 27.82870312 -11.85546875 25.5859375 C-11.42556641 24.74160156 -10.99566406 23.89726562 -10.55273438 23.02734375 C-9.65456974 21.2824116 -8.7561396 19.53761609 -7.85742188 17.79296875 C-4.89619281 11.97611165 -2.31859026 6.10172538 0 0 Z " fill="#F4941F" transform="translate(483,170)"/>
<path d="M0 0 C2.97268464 -0.1635635 5.946012 -0.2706336 8.92152405 -0.36808777 C10.40048294 -0.42680939 11.87878119 -0.50630032 13.35542297 -0.60777283 C18.07647158 -0.92191933 22.37129022 -0.9554971 26.97453308 0.35545349 C30.67489003 3.87047847 32.73583102 7.81175685 34.97453308 12.35545349 C35.86798517 13.77012378 36.78115222 15.17279626 37.72453308 16.55467224 C38.47552128 17.71679466 39.2255683 18.87952599 39.97453308 20.04295349 C40.56427917 20.95077576 40.56427917 20.95077576 41.16593933 21.87693787 C43.97453308 26.23661911 43.97453308 26.23661911 43.97453308 27.35545349 C42.32058533 27.25043518 42.32058533 27.25043518 40.63322449 27.14329529 C24.4646347 26.20510837 8.30122635 26.1678765 -7.88825989 26.17015076 C-11.05238075 26.17023184 -14.21635627 26.16330101 -17.38044739 26.14964294 C-43.07543558 26.04067626 -68.47898798 26.97014882 -93.96296692 30.54295349 C-94.72418854 30.64772003 -95.48541016 30.75248657 -96.2696991 30.86042786 C-129.37875997 35.44846991 -163.06243629 41.832524 -194.72492981 52.71702576 C-196.47590516 53.31208942 -198.24900771 53.84144169 -200.02546692 54.35545349 C-200.68546692 54.02545349 -201.34546692 53.69545349 -202.02546692 53.35545349 C-144.71506563 19.91779867 -75.33779502 2.08863547 -8.99909973 0.45799255 C-5.99565483 0.35442549 -2.99967989 0.1801454 0 0 Z " fill="#09408E" transform="translate(553.0254669189453,465.64454650878906)"/>
<path d="M0 0 C1.11810059 0.06799805 2.23620117 0.13599609 3.38818359 0.20605469 C4.57331543 0.2444043 5.75844727 0.28275391 6.97949219 0.32226562 C10.80717796 0.46316203 14.62674625 0.67439718 18.45068359 0.89355469 C20.95455568 1.00758857 23.45846202 1.12087279 25.96240234 1.23339844 C52.78164607 2.58905847 79.4254517 5.76195521 105.70556641 11.31738281 C108.14549523 11.82949879 110.58861208 12.3126147 113.03662109 12.78417969 C127.48365481 15.6610281 141.45921623 20.34985083 155.45068359 24.89355469 C156.39266602 25.19664551 157.33464844 25.49973633 158.30517578 25.81201172 C180.80560091 33.11163769 201.93591829 43.17479978 222.45068359 54.89355469 C220.45068359 55.89355469 220.45068359 55.89355469 217.26708984 54.92480469 C215.84790045 54.41779185 214.43004617 53.90703398 213.01318359 53.39355469 C177.39430497 41.0449956 139.78005751 34.59198658 102.45068359 30.20605469 C101.53061523 30.09727997 100.61054688 29.98850525 99.66259766 29.87643433 C96.96756974 29.56015221 94.27182816 29.25094095 91.57568359 28.94433594 C90.79386719 28.85284271 90.01205078 28.76134949 89.20654297 28.66708374 C75.57809942 27.14808014 61.99500956 26.73978096 48.29833984 26.76074219 C46.70283493 26.76006541 45.10733013 26.75909231 43.51182556 26.75784302 C40.19496666 26.75638315 36.87813499 26.75846444 33.5612793 26.76318359 C29.36187343 26.76887509 25.16253161 26.76559447 20.96312809 26.75961113 C17.676097 26.75595476 14.38908047 26.75716716 11.10204887 26.75973892 C9.55588205 26.76039449 8.0097138 26.75962923 6.46354866 26.75725937 C-4.24268061 26.74444327 -14.86825255 27.15856263 -25.54931641 27.89355469 C-23.94438993 23.66790288 -21.92347731 20.33880167 -19.29931641 16.64355469 C-18.55166016 15.58652344 -17.80400391 14.52949219 -17.03369141 13.44042969 C-16.62965088 12.8897583 -16.22561035 12.33908691 -15.80932617 11.77172852 C-14.46930563 9.85719568 -14.46930563 9.85719568 -13.33422852 7.48999023 C-9.88833396 1.1039685 -7.19839331 -0.12732612 0 0 Z " fill="#08408E" transform="translate(54.54931640625,465.1064453125)"/>
<path d="M0 0 C6.91874187 4.78022165 10.35087238 9.50062603 13.1484375 17.484375 C14.59506156 26.74059361 12.83285596 34.60081928 7.8984375 42.48046875 C3.11755994 48.79611666 -4.12036425 52.26877779 -11.8515625 53.484375 C-21.06232094 54.56799364 -27.05809551 51.57349817 -34.6640625 46.671875 C-41.05773546 40.27820204 -43.79216505 32.97241381 -44.1640625 24.046875 C-43.85418399 14.99842263 -40.57400454 9.13646671 -34.2890625 2.66015625 C-24.78461499 -5.82378167 -10.94913105 -6.2237166 0 0 Z " fill="#0271B9" transform="translate(339.8515625,78.515625)"/>
<path d="M0 0 C2.25451656 0.93626103 4.31175927 1.98940463 6.4140625 3.2265625 C7.3421875 3.7628125 8.2703125 4.2990625 9.2265625 4.8515625 C13.68289443 9.68986574 15.61907172 15.76874913 15.9140625 22.2890625 C15.61564795 28.83360223 13.20694544 33.92142729 9.2265625 39.0390625 C2.7754498 44.0565946 -3.3718849 46.03578149 -11.58203125 45.7421875 C-18.10379712 44.62271663 -22.90722016 41.24102331 -27.0859375 36.2265625 C-30.58221096 29.23401558 -31.46078956 23.01884943 -30.5859375 15.2265625 C-29.53279694 12.23198022 -28.26204184 9.95023206 -26.5859375 7.2265625 C-25.9259375 7.2265625 -25.2659375 7.2265625 -24.5859375 7.2265625 C-24.5859375 6.5665625 -24.5859375 5.9065625 -24.5859375 5.2265625 C-17.24087721 -1.04598899 -9.25611017 -2.76844383 0 0 Z " fill="#F4941F" transform="translate(196.5859375,166.7734375)"/>
<path d="M0 0 C4.46740851 1.69019165 8.35153759 3.28299159 11.2578125 7.24609375 C11.2578125 7.90609375 11.2578125 8.56609375 11.2578125 9.24609375 C11.9178125 9.24609375 12.5778125 9.24609375 13.2578125 9.24609375 C16.54990919 16.65331129 17.61266374 23.52802172 15.2578125 31.43359375 C12.75388157 37.29587753 7.55875421 40.62497573 2.5078125 44.18359375 C-4.32618146 46.41778408 -12.14416725 46.17854719 -18.7421875 43.24609375 C-18.7421875 42.58609375 -18.7421875 41.92609375 -18.7421875 41.24609375 C-19.3609375 40.99859375 -19.9796875 40.75109375 -20.6171875 40.49609375 C-23.09287437 39.03980736 -23.69343752 37.86796869 -24.7421875 35.24609375 C-25.4021875 35.24609375 -26.0621875 35.24609375 -26.7421875 35.24609375 C-30.15020833 27.57804687 -31.22151955 20.651103 -28.2421875 12.62109375 C-27.7471875 11.50734375 -27.2521875 10.39359375 -26.7421875 9.24609375 C-26.0821875 9.24609375 -25.4221875 9.24609375 -24.7421875 9.24609375 C-24.4946875 8.64152344 -24.2471875 8.03695312 -23.9921875 7.4140625 C-22.53413996 4.8852613 -21.24436405 4.01666354 -18.7421875 2.55859375 C-18.0409375 2.14222656 -17.3396875 1.72585937 -16.6171875 1.296875 C-11.29881111 -1.68363177 -5.86981382 -1.61378072 0 0 Z " fill="#F4931F" transform="translate(444.7421875,166.75390625)"/>
<path d="M0 0 C7.18441664 4.01223966 13.97519085 8.28098522 20.57421875 13.19921875 C23.32236646 15.23930908 26.12946901 17.13803395 29 19 C28.01 19.495 28.01 19.495 27 20 C25.00390625 19.2590332 25.00390625 19.2590332 22.5625 18.05078125 C21.66660156 17.61443359 20.77070313 17.17808594 19.84765625 16.72851562 C18.90792969 16.26123047 17.96820313 15.79394531 17 15.3125 C10.09681854 11.909868 3.19182703 8.74861177 -4 6 C-3.34 5.566875 -2.68 5.13375 -2 4.6875 C-1.01 3.8521875 -1.01 3.8521875 0 3 C0 2.01 0 1.02 0 0 Z " fill="#1C74B6" transform="translate(262,491)"/>
<path d="M0 0 C0.33 0.66 0.66 1.32 1 2 C0.01 2.99 -0.98 3.98 -2 5 C-0.68 5.66 0.64 6.32 2 7 C-1.89178093 8.82129442 -5.78907509 10.63047593 -9.6875 12.4375 C-10.79029297 12.95376953 -11.89308594 13.47003906 -13.02929688 14.00195312 C-14.6293457 14.74155273 -14.6293457 14.74155273 -16.26171875 15.49609375 C-17.24100342 15.95169678 -18.22028809 16.4072998 -19.22924805 16.87670898 C-21.83700977 17.93392211 -24.22898114 18.555487 -27 19 C-22.367958 13.72209593 -16.61297399 10.36864859 -10.6875 6.6875 C-9.14739258 5.71973633 -9.14739258 5.71973633 -7.57617188 4.73242188 C-5.05442379 3.14899866 -2.52902263 1.57176831 0 0 Z " fill="#2071B0" transform="translate(365,490)"/>
<path d="M0 0 C1.93665127 3.56819721 2.24270444 6.03987123 2.1875 10.125 C2.17783203 11.70667969 2.17783203 11.70667969 2.16796875 13.3203125 C2 16 2 16 1 18 C0.34 18 -0.32 18 -1 18 C-0.97679687 18.69867188 -0.95359375 19.39734375 -0.9296875 20.1171875 C-0.91164063 21.02726562 -0.89359375 21.93734375 -0.875 22.875 C-0.85179687 23.77992187 -0.82859375 24.68484375 -0.8046875 25.6171875 C-1 28 -1 28 -3 30 C-3.45847689 32.36030696 -3.82143131 34.7398174 -4.125 37.125 C-4.29257812 38.40632813 -4.46015625 39.68765625 -4.6328125 41.0078125 C-4.75398438 41.99523437 -4.87515625 42.98265625 -5 44 C-5.33 44 -5.66 44 -6 44 C-6.47367434 33.80394045 -5.07207253 24.59474167 -3 14.6875 C-2.70978892 13.25348718 -2.42071984 11.81924275 -2.1328125 10.38476562 C-1.43497068 6.92041741 -0.72190027 3.45942545 0 0 Z " fill="#246FAC" transform="translate(273,52)"/>
<path d="M0 0 C2 2 2 2 2.22705078 4.79736328 C2.21657715 5.95993652 2.20610352 7.12250977 2.1953125 8.3203125 C2.18886719 9.57714844 2.18242187 10.83398438 2.17578125 12.12890625 C2.15902344 13.44761719 2.14226562 14.76632812 2.125 16.125 C2.11496983 17.46483721 2.10584404 18.80468152 2.09765625 20.14453125 C2.07402075 23.42986573 2.04107234 26.71484465 2 30 C2.66 30 3.32 30 4 30 C4 41.88 4 53.76 4 66 C3.67 66 3.34 66 3 66 C2.56509663 59.33340445 2.13888579 52.66629085 1.71826172 45.9987793 C1.5746793 43.73823951 1.42922371 41.47781779 1.28173828 39.2175293 C0.42900567 26.12779362 -0.24533097 13.11952804 0 0 Z " fill="#C2E0ED" transform="translate(316,426)"/>
<path d="M0 0 C-1.74604549 1.4630657 -3.49699453 2.9202808 -5.25 4.375 C-6.22453125 5.18710938 -7.1990625 5.99921875 -8.203125 6.8359375 C-10.4552682 8.57851757 -12.40711386 9.876416 -15 11 C-15 9.35 -15 7.7 -15 6 C-15.99 6.66 -16.98 7.32 -18 8 C-20.94866902 8.8846007 -23.97932742 9.412647 -27 10 C-27.33 9.34 -27.66 8.68 -28 8 C-24.41787056 6.68419784 -20.83409597 5.37293509 -17.25 4.0625 C-16.23421875 3.68931641 -15.2184375 3.31613281 -14.171875 2.93164062 C-12.70234375 2.39506836 -12.70234375 2.39506836 -11.203125 1.84765625 C-10.30239258 1.51773682 -9.40166016 1.18781738 -8.47363281 0.84790039 C-2.44033259 -1.2201663 -2.44033259 -1.2201663 0 0 Z " fill="#1B72B4" transform="translate(423,105)"/>
<path d="M0 0 C0.33 0 0.66 0 1 0 C1.77138946 5.46522159 2.14856746 10.74650184 2.1328125 16.26171875 C2.13376923 17.01540237 2.13472595 17.769086 2.13571167 18.54560852 C2.13638695 20.12456344 2.1345786 21.70352124 2.13037109 23.2824707 C2.12499077 25.69163235 2.13034986 28.10060951 2.13671875 30.50976562 C2.13605829 32.05208374 2.1347778 33.59440174 2.1328125 35.13671875 C2.13483673 35.85139816 2.13686096 36.56607758 2.13894653 37.30241394 C2.12169692 40.99363899 1.87873208 44.41046234 1 48 C0.67 48 0.34 48 0 48 C-0.90022773 43.39337289 -1.14658449 38.93624642 -1.1328125 34.2578125 C-1.13376923 33.53061005 -1.13472595 32.80340759 -1.13571167 32.0541687 C-1.13638896 30.52292799 -1.13456626 28.99168433 -1.13037109 27.46044922 C-1.12503204 25.13893043 -1.1303234 22.81760647 -1.13671875 20.49609375 C-1.13605759 18.99999958 -1.13477563 17.50390553 -1.1328125 16.0078125 C-1.13483673 15.32421661 -1.13686096 14.64062073 -1.13894653 13.93630981 C-1.11637347 9.2046927 -0.65694185 4.67557321 0 0 Z " fill="#146CAF" transform="translate(318,272)"/>
<path d="M0 0 C0.66 0.33 1.32 0.66 2 1 C1.01 1.33 0.02 1.66 -1 2 C-0.67 3.65 -0.34 5.3 0 7 C-3.62114543 8.19948775 -7.2474506 9.38253505 -10.875 10.5625 C-11.90753906 10.90474609 -12.94007813 11.24699219 -14.00390625 11.59960938 C-14.99003906 11.91865234 -15.97617187 12.23769531 -16.9921875 12.56640625 C-17.90339355 12.86490479 -18.81459961 13.16340332 -19.75341797 13.47094727 C-22 14 -22 14 -24 13 C-21.50136876 11.58087449 -19.00115719 10.1646616 -16.5 8.75 C-15.80390625 8.35425781 -15.1078125 7.95851563 -14.390625 7.55078125 C-9.66226157 4.88013153 -4.94191616 2.25609216 0 0 Z " fill="#1F3C85" transform="translate(375,506)"/>
<path d="M0 0 C3.92253217 0.59657109 6.84040836 1.80022687 10.30078125 3.72265625 C11.27724609 4.26083984 12.25371094 4.79902344 13.25976562 5.35351562 C14.26716797 5.91748047 15.27457031 6.48144531 16.3125 7.0625 C17.33923828 7.63033203 18.36597656 8.19816406 19.42382812 8.78320312 C21.9526018 10.18284995 24.47777036 11.58860511 27 13 C25 14 25 14 22.93701172 13.47094727 C22.10959473 13.17244873 21.28217773 12.8739502 20.4296875 12.56640625 C19.53378906 12.24736328 18.63789063 11.92832031 17.71484375 11.59960938 C16.77769531 11.25736328 15.84054687 10.91511719 14.875 10.5625 C13.93011719 10.22412109 12.98523438 9.88574219 12.01171875 9.53710938 C9.67197234 8.6981094 7.33497991 7.85215708 5 7 C5.33 5.68 5.66 4.36 6 3 C4.02 2.34 2.04 1.68 0 1 C0 0.67 0 0.34 0 0 Z " fill="#1A337C" transform="translate(250,507)"/>
<path d="M0 0 C-1.65356922 3.58273331 -3.67980703 6.80973467 -6 10 C-6.66 10 -7.32 10 -8 10 C-8.33 11.32 -8.66 12.64 -9 14 C-9.99 13.67 -10.98 13.34 -12 13 C-12 12.01 -12 11.02 -12 10 C-12.99 9.67 -13.98 9.34 -15 9 C-14.01 8.67 -13.02 8.34 -12 8 C-12 7.34 -12 6.68 -12 6 C-10.02 5.34 -8.04 4.68 -6 4 C-6 3.34 -6 2.68 -6 2 C-2.25 0 -2.25 0 0 0 Z " fill="#F0972B" transform="translate(256,174)"/>
<path d="M0 0 C0.66 0 1.32 0 2 0 C2 0.66 2 1.32 2 2 C3.98 2.66 5.96 3.32 8 4 C8 4.66 8 5.32 8 6 C8.763125 6.144375 9.52625 6.28875 10.3125 6.4375 C13 7 13 7 16 8 C16 8.66 16 9.32 16 10 C20.95 10 25.9 10 31 10 C31 10.33 31 10.66 31 11 C22.61273036 13.23660524 15.76529819 12.57632163 8.203125 8.3671875 C1.37704918 4.13114754 1.37704918 4.13114754 0 0 Z " fill="#2878B1" transform="translate(302,120)"/>
<path d="M0 0 C2.66666667 1.33333333 5.33333333 2.66666667 8 4 C8 4.66 8 5.32 8 6 C8.763125 6.268125 9.52625 6.53625 10.3125 6.8125 C12.87380884 7.94424112 14.19692938 8.91223401 16 11 C15.01 11.33 14.02 11.66 13 12 C11.79117904 14.00016466 11.79117904 14.00016466 11 16 C8 12.25 8 12.25 8 10 C7.34 10 6.68 10 6 10 C5.34 8.02 4.68 6.04 4 4 C3.34 4 2.68 4 2 4 C2 3.34 2 2.68 2 2 C1.34 2 0.68 2 0 2 C0 1.34 0 0.68 0 0 Z " fill="#EB9728" transform="translate(368,172)"/>
<path d="M0 0 C9.9 0 19.8 0 30 0 C30.66 1.32 31.32 2.64 32 4 C30.69546875 3.86722656 29.3909375 3.73445313 28.046875 3.59765625 C18.70349229 2.65187564 9.3637078 1.7232132 0 1 C0 0.67 0 0.34 0 0 Z " fill="#2575B0" transform="translate(84,452)"/>
<path d="M0 0 C-1.36944102 2.94956528 -2.87830409 5.52468811 -5 8 C-5.66 8 -6.32 8 -7 8 C-7.33 8.99 -7.66 9.98 -8 11 C-8.66 11 -9.32 11 -10 11 C-9.9071875 12.85625 -9.9071875 12.85625 -9.8125 14.75 C-9.79637174 17.78211302 -9.89348977 18.82248296 -11.5 21.5 C-11.995 21.995 -12.49 22.49 -13 23 C-14.56779804 18.07578925 -13.30596152 14.50742328 -11 10 C-3.3922114 0 -3.3922114 0 0 0 Z " fill="#2372AC" transform="translate(310,79)"/>
<path d="M0 0 C0 0.33 0 0.66 0 1 C-2.91555115 1.67189656 -5.83226951 2.33769308 -8.75 3 C-9.9875 3.28617187 -9.9875 3.28617187 -11.25 3.578125 C-12.44882812 3.84882813 -12.44882812 3.84882813 -13.671875 4.125 C-14.4050293 4.29257812 -15.13818359 4.46015625 -15.89355469 4.6328125 C-18 5 -18 5 -22 5 C-22 4.34 -22 3.68 -22 3 C-22.66 2.67 -23.32 2.34 -24 2 C-15.71767933 -0.1123498 -8.47763822 -1.62129948 0 0 Z " fill="#1F76B8" transform="translate(480,337)"/>
<path d="M0 0 C0.33 0 0.66 0 1 0 C1.33 1.65 1.66 3.3 2 5 C2.33 5 2.66 5 3 5 C3.02505615 5.59014893 3.0501123 6.18029785 3.07592773 6.78833008 C3.19200052 9.46326814 3.31467572 12.1378638 3.4375 14.8125 C3.47681641 15.74126953 3.51613281 16.67003906 3.55664062 17.62695312 C3.59853516 18.51962891 3.64042969 19.41230469 3.68359375 20.33203125 C3.72025146 21.15421143 3.75690918 21.9763916 3.79467773 22.82348633 C3.93427772 25.17905178 3.93427772 25.17905178 5 28 C4.0625 30.1875 4.0625 30.1875 3 32 C0.37399009 21.2155127 -0.14215018 11.10350852 0 0 Z " fill="#1D6FB0" transform="translate(265,164)"/>
<path d="M0 0 C0.33 0 0.66 0 1 0 C1.042721 1.66611905 1.04063832 3.33382885 1 5 C0.67 5.33 0.34 5.66 0 6 C0.62648438 6.04898437 1.25296875 6.09796875 1.8984375 6.1484375 C2.71570312 6.22320312 3.53296875 6.29796875 4.375 6.375 C5.59316406 6.47941406 5.59316406 6.47941406 6.8359375 6.5859375 C9 7 9 7 11 9 C2.585 9.495 2.585 9.495 -6 10 C-4.29446495 5.73616239 -2.96160608 3.3437488 0 0 Z " fill="#173A85" transform="translate(35,483)"/>
<path d="M0 0 C0 0.99 0 1.98 0 3 C-2.54173977 3.02716824 -5.08318415 3.04691969 -7.625 3.0625 C-8.69427734 3.07506836 -8.69427734 3.07506836 -9.78515625 3.08789062 C-13.97344438 3.10710296 -17.8728462 2.8267327 -22 2 C-22 1.67 -22 1.34 -22 1 C-14.63512596 0.00137301 -7.42686315 -0.10331031 0 0 Z " fill="#2D7DBA" transform="translate(506,333)"/>
<path d="M0 0 C0.99 0.66 1.98 1.32 3 2 C3.86625 2.474375 4.7325 2.94875 5.625 3.4375 C8 5 8 5 9 8 C4.47907032 9.45606519 1.48351204 8.27032841 -3 7 C-2.67 5.68 -2.34 4.36 -2 3 C-1.34 3 -0.68 3 0 3 C0 2.01 0 1.02 0 0 Z " fill="#194290" transform="translate(248,505)"/>
<path d="M0 0 C1.18529297 0.0009668 1.18529297 0.0009668 2.39453125 0.00195312 C6.74236729 0.03450764 10.84544481 0.32746077 15.125 1.1875 C15.125 1.5175 15.125 1.8475 15.125 2.1875 C5.64888303 3.35406743 -3.40458787 2.96868882 -12.875 2.1875 C-8.87978971 -0.54436001 -4.63878914 -0.07119305 0 0 Z " fill="#1A418F" transform="translate(132.875,489.8125)"/>
<path d="M0 0 C0.65355469 0.70769531 0.65355469 0.70769531 1.3203125 1.4296875 C3.45757628 3.42778062 5.01117244 3.64624463 7.875 4.125 C9.13957031 4.34542969 9.13957031 4.34542969 10.4296875 4.5703125 C11.27789062 4.71210938 12.12609375 4.85390625 13 5 C14.66772424 5.32800117 16.33472496 5.65978252 18 6 C18 6.66 18 7.32 18 8 C13.89345322 9.72852097 10.45153143 8.10314573 6.5 6.6875 C5.50419922 6.3481543 5.50419922 6.3481543 4.48828125 6.00195312 C1.20875286 4.86622822 -1.94803605 3.65833755 -5 2 C-2 0 -2 0 0 0 Z " fill="#1774BA" transform="translate(189,468)"/>
<path d="M0 0 C0.33 0 0.66 0 1 0 C1.90670108 4.08015487 2.14987654 8.08486395 2.25 12.25 C2.27578125 13.28640625 2.3015625 14.3228125 2.328125 15.390625 C2.16570312 16.68226562 2.16570312 16.68226562 2 18 C1.01 18.66 0.02 19.32 -1 20 C-1.02696009 17.2291017 -1.04681952 14.4584655 -1.0625 11.6875 C-1.07087891 10.90181641 -1.07925781 10.11613281 -1.08789062 9.30664062 C-1.09111328 8.54931641 -1.09433594 7.79199219 -1.09765625 7.01171875 C-1.10289307 6.31522217 -1.10812988 5.61872559 -1.11352539 4.90112305 C-1 3 -1 3 0 0 Z " fill="#186BB1" transform="translate(266,98)"/>
<path d="M0 0 C0.99 0.66 1.98 1.32 3 2 C3 2.66 3 3.32 3 4 C7.62 4 12.24 4 17 4 C12.62703266 6.18648367 9.4791784 6.23362071 4.75 6.125 C4.00492188 6.11597656 3.25984375 6.10695313 2.4921875 6.09765625 C0.66131941 6.07418358 -1.16938238 6.03831525 -3 6 C-2.01 4.02 -1.02 2.04 0 0 Z " fill="#1B6CAB" transform="translate(59,445)"/>
<path d="M0 0 C10.69220032 -0.19558903 21.32799208 0.40945411 32 1 C32 1.33 32 1.66 32 2 C23.42 2.33 14.84 2.66 6 3 C6 2.34 6 1.68 6 1 C4.02 1 2.04 1 0 1 C0 0.67 0 0.34 0 0 Z " fill="#255295" transform="translate(528,467)"/>
<path d="M0 0 C0 3 0 3 -1 5 C-0.0925 5.268125 0.815 5.53625 1.75 5.8125 C4.71471963 6.89576294 6.6169754 7.98359457 9 10 C8.67 10.99 8.34 11.98 8 13 C6.41499412 12.0653305 4.83206584 11.12713737 3.25 10.1875 C2.36828125 9.66542969 1.4865625 9.14335938 0.578125 8.60546875 C-1.71972797 7.17453304 -3.86506946 5.66105577 -6 4 C-4.02 2.68 -2.04 1.36 0 0 Z " fill="#2475B1" transform="translate(277,538)"/>
<path d="M0 0 C2.80845063 2.54056764 4.67675985 5.42973578 6.6875 8.625 C7.31011719 9.60726563 7.93273437 10.58953125 8.57421875 11.6015625 C10 14 10 14 10 15 C7.36 15 4.72 15 2 15 C3.32 14.67 4.64 14.34 6 14 C6 12.68 6 11.36 6 10 C5.01 9.67 4.02 9.34 3 9 C0.75 6.125 0.75 6.125 -1 3 C-0.67 2.01 -0.34 1.02 0 0 Z " fill="#204185" transform="translate(587,478)"/>
<path d="M0 0 C2.34914492 2.34914492 2.73140357 3.95679446 3.625 7.125 C3.88539063 8.03507813 4.14578125 8.94515625 4.4140625 9.8828125 C4.70410156 10.93082031 4.70410156 10.93082031 5 12 C4.01 12.495 4.01 12.495 3 13 C2.59270772 15.32156597 2.25561323 17.6568787 2 20 C1.67 20 1.34 20 1 20 C-0.03026944 13.30324864 -0.10152799 6.7685324 0 0 Z " fill="#E8972E" transform="translate(142,170)"/>
<path d="M0 0 C0 0.66 0 1.32 0 2 C-6.34241995 3.15316726 -12.56688704 3.09507063 -19 3 C-18.67 2.34 -18.34 1.68 -18 1 C-12.17592235 -0.57407504 -5.98360949 -0.08713994 0 0 Z " fill="#113488" transform="translate(534,468)"/>
<path d="M0 0 C0.93779297 0.00322266 1.87558594 0.00644531 2.84179688 0.00976562 C4.30649414 0.02233398 4.30649414 0.02233398 5.80078125 0.03515625 C7.28288086 0.04192383 7.28288086 0.04192383 8.79492188 0.04882812 C11.23443599 0.06061322 13.67382814 0.07706614 16.11328125 0.09765625 C16.11328125 0.42765625 16.11328125 0.75765625 16.11328125 1.09765625 C13.23871333 1.43513173 10.36372066 1.76776088 7.48828125 2.09765625 C6.68003906 2.19304687 5.87179687 2.2884375 5.0390625 2.38671875 C0.70354386 2.88019242 -3.51409186 3.21086342 -7.88671875 3.09765625 C-7.88671875 2.43765625 -7.88671875 1.77765625 -7.88671875 1.09765625 C-4.94539984 0.11721661 -3.0617021 -0.01855577 0 0 Z " fill="#156AAB" transform="translate(475.88671875,343.90234375)"/>
<path d="M0 0 C-3.10275737 2.06850491 -5.4099217 2.78558082 -9 3.6875 C-10.051875 3.95949219 -11.10375 4.23148437 -12.1875 4.51171875 C-15 5 -15 5 -18 4 C-17.01 3.34 -16.02 2.68 -15 2 C-15.33 1.34 -15.66 0.68 -16 0 C-14.9275 0.020625 -13.855 0.04125 -12.75 0.0625 C-9.23796085 0.15384983 -9.23796085 0.15384983 -6.875 -0.5625 C-4.37703091 -1.14535945 -2.45920181 -0.61480045 0 0 Z " fill="#0D3381" transform="translate(394,507)"/>
<path d="M0 0 C0.33 0 0.66 0 1 0 C1.05434116 2.5419589 1.0938339 5.08273682 1.125 7.625 C1.14175781 8.33785156 1.15851563 9.05070312 1.17578125 9.78515625 C1.21684602 14.2612164 0.69086567 17.77949278 -1 22 C-1.33 22 -1.66 22 -2 22 C-2.33 18.7 -2.66 15.4 -3 12 C-2.67 12 -2.34 12 -2 12 C-1.34 8.04 -0.68 4.08 0 0 Z " fill="#1272BF" transform="translate(269,82)"/>
<path d="M0 0 C0.66 0.33 1.32 0.66 2 1 C1.01 1.33 0.02 1.66 -1 2 C-0.67 3.65 -0.34 5.3 0 7 C-1.60064843 7.53154742 -3.20568874 8.04988353 -4.8125 8.5625 C-5.70582031 8.85253906 -6.59914063 9.14257812 -7.51953125 9.44140625 C-10 10 -10 10 -13 9 C-10.36 8.01 -7.72 7.02 -5 6 C-5.66 5.34 -6.32 4.68 -7 4 C-1.7265625 0.77734375 -1.7265625 0.77734375 0 0 Z " fill="#123078" transform="translate(375,506)"/>
<path d="M0 0 C0 0.66 0 1.32 0 2 C-4.29 2 -8.58 2 -13 2 C-13.33 1.34 -13.66 0.68 -14 0 C-5.06382979 -2.53191489 -5.06382979 -2.53191489 0 0 Z " fill="#1E4491" transform="translate(472,478)"/>
<path d="M0 0 C3.89006773 1.38780795 6.96558708 3.2152227 10.3125 5.625 C11.19550781 6.25664062 12.07851563 6.88828125 12.98828125 7.5390625 C13.65214844 8.02117187 14.31601562 8.50328125 15 9 C14.01 9.495 14.01 9.495 13 10 C10.71741367 8.92325298 8.5643566 7.80453884 6.375 6.5625 C5.76398438 6.22412109 5.15296875 5.88574219 4.5234375 5.53710938 C3.011647 4.69853808 1.50529601 3.85017423 0 3 C0 2.01 0 1.02 0 0 Z " fill="#326FA8" transform="translate(276,501)"/>
<path d="M0 0 C0.33 0 0.66 0 1 0 C1.33 3.63 1.66 7.26 2 11 C2.33 11 2.66 11 3 11 C3 15.29 3 19.58 3 24 C0 21 0 21 -0.34057617 18.73168945 C-0.32486572 17.86761475 -0.30915527 17.00354004 -0.29296875 16.11328125 C-0.28330078 15.17548828 -0.27363281 14.23769531 -0.26367188 13.27148438 C-0.23853516 12.29501953 -0.21339844 11.31855469 -0.1875 10.3125 C-0.17396484 9.32443359 -0.16042969 8.33636719 -0.14648438 7.31835938 C-0.11112203 4.87835769 -0.06177033 2.43945281 0 0 Z " fill="#186BAF" transform="translate(314,432)"/>
<path d="M0 0 C0.33 0 0.66 0 1 0 C1.02722517 2.20826378 1.04649729 4.41662638 1.0625 6.625 C1.07410156 7.85476562 1.08570313 9.08453125 1.09765625 10.3515625 C1.00863924 13.67723791 0.63686087 16.74047588 0 20 C-0.33 20 -0.66 20 -1 20 C-1 16.04 -1 12.08 -1 8 C-1.66 8 -2.32 8 -3 8 C-1.125 2.25 -1.125 2.25 0 0 Z " fill="#E89F3D" transform="translate(483,170)"/>
<path d="M0 0 C0 0.33 0 0.66 0 1 C-4.82181981 2.32575494 -9.38832067 1.90062439 -14.3125 1.5625 C-15.14845703 1.51029297 -15.98441406 1.45808594 -16.84570312 1.40429688 C-18.89750789 1.27532629 -20.94881306 1.13844979 -23 1 C-23 0.67 -23 0.34 -23 0 C-15.19636521 -1.14500285 -7.83007996 -0.79773542 0 0 Z " fill="#15418B" transform="translate(72,489)"/>
<path d="M0 0 C-3.46528089 3.46528089 -8.16086116 4.88505382 -13 5.1875 C-13.66 5.125625 -14.32 5.06375 -15 5 C-14.67 4.01 -14.34 3.02 -14 2 C-9.18912503 0.45073518 -5.08003559 -0.25400178 0 0 Z " fill="#1272B8" transform="translate(387,488)"/>
<path d="M0 0 C2.40569331 3.05783908 4.36189615 6.22457996 6.25 9.625 C6.79140625 10.58664062 7.3328125 11.54828125 7.890625 12.5390625 C8.25671875 13.35117187 8.6228125 14.16328125 9 15 C8.67 15.66 8.34 16.32 8 17 C4.06153846 13.67692308 4.06153846 13.67692308 3.75 10.25 C3.8325 9.5075 3.915 8.765 4 8 C3.34 8 2.68 8 2 8 C0.23537317 4.91190305 0 3.76687864 0 0 Z " fill="#1D73B1" transform="translate(552,419)"/>
<path d="M0 0 C1.4589426 0.47730838 2.91713496 0.95691042 4.375 1.4375 C5.18710938 1.70433594 5.99921875 1.97117187 6.8359375 2.24609375 C9 3 9 3 11 4 C11 4.99 11 5.98 11 7 C9.58208592 6.54554036 8.16571954 6.08625056 6.75 5.625 C5.96109375 5.36976563 5.1721875 5.11453125 4.359375 4.8515625 C2.13372042 4.04826333 0.09068328 3.10288338 -2 2 C-1.34 1.34 -0.68 0.68 0 0 Z " fill="#1F79B3" transform="translate(210,359)"/>
<path d="M0 0 C0.99 0 1.98 0 3 0 C3 0.66 3 1.32 3 2 C3.66 2 4.32 2 5 2 C5 2.66 5 3.32 5 4 C5.556875 4.20625 6.11375 4.4125 6.6875 4.625 C9.92501302 6.55000774 11.68231141 9.03850902 14 12 C11 12 11 12 8.30078125 9.62890625 C7.29691517 8.61440318 6.30108274 7.59190164 5.3125 6.5625 C4.80138672 6.04623047 4.29027344 5.52996094 3.76367188 4.99804688 C0 1.15397613 0 1.15397613 0 0 Z " fill="#FCF4DA" transform="translate(401,196)"/>
<path d="M0 0 C0.33 0 0.66 0 1 0 C1.99 4.95 2.98 9.9 4 15 C2.68 14.67 1.36 14.34 0 14 C-0.19532961 12.2300132 -0.38098882 10.45895721 -0.5625 8.6875 C-0.66691406 7.70136719 -0.77132813 6.71523437 -0.87890625 5.69921875 C-1 3 -1 3 0 0 Z " fill="#2576B8" transform="translate(282,105)"/>
<path d="M0 0 C0 5.28 0 10.56 0 16 C-0.99 15.34 -1.98 14.68 -3 14 C-3.29296875 10.9609375 -3.29296875 10.9609375 -3.1875 7.375 C-3.16042969 6.18648438 -3.13335937 4.99796875 -3.10546875 3.7734375 C-3.07066406 2.85820312 -3.03585937 1.94296875 -3 1 C-1 0 -1 0 0 0 Z " fill="#1569A9" transform="translate(312,442)"/>
<path d="M0 0 C5.9129304 0.64270983 11.34244531 2.19003784 17 4 C16.67 4.99 16.34 5.98 16 7 C15.34 7 14.68 7 14 7 C14 6.34 14 5.68 14 5 C12.68 5 11.36 5 10 5 C10 4.34 10 3.68 10 3 C6.7 2.67 3.4 2.34 0 2 C0 1.34 0 0.68 0 0 Z " fill="#1C6FAC" transform="translate(142,439)"/>
<path d="M0 0 C1.32 0 2.64 0 4 0 C4 0.66 4 1.32 4 2 C4.66 2 5.32 2 6 2 C6 5.3 6 8.6 6 12 C3.71540242 9.71540242 3.02870252 7.87462656 1.875 4.875 C1.52179688 3.96492188 1.16859375 3.05484375 0.8046875 2.1171875 C0.53914063 1.41851562 0.27359375 0.71984375 0 0 Z " fill="#1870B1" transform="translate(290,276)"/>
<path d="M0 0 C-1.65 0.33 -3.3 0.66 -5 1 C-5 1.66 -5 2.32 -5 3 C-8.96 3 -12.92 3 -17 3 C-17 2.34 -17 1.68 -17 1 C-14.54256214 0.63826036 -12.08441207 0.28531831 -9.625 -0.0625 C-8.57699219 -0.2181543 -8.57699219 -0.2181543 -7.5078125 -0.37695312 C-2.2265625 -1.11328125 -2.2265625 -1.11328125 0 0 Z " fill="#E4F5FA" transform="translate(335,131)"/>
<path d="M0 0 C0 0.66 0 1.32 0 2 C-3.85756507 4.15305957 -6.55129785 5.39253254 -11 5 C-10.67 4.01 -10.34 3.02 -10 2 C-6.3962102 0.47839986 -3.94779314 0 0 0 Z " fill="#1D3E86" transform="translate(416,491)"/>
<path d="M0 0 C1.32 0.33 2.64 0.66 4 1 C4 1.99 4 2.98 4 4 C3.01 4.33 2.02 4.66 1 5 C1 5.66 1 6.32 1 7 C-0.98 7.99 -0.98 7.99 -3 9 C-2.01 6.03 -1.02 3.06 0 0 Z " fill="#E99B2D" transform="translate(399,339)"/>
<path d="M0 0 C2.66666667 1.33333333 5.33333333 2.66666667 8 4 C8 4.66 8 5.32 8 6 C8.66 6.33 9.32 6.66 10 7 C9.01 8.485 9.01 8.485 8 10 C7.34 10 6.68 10 6 10 C5.34 8.02 4.68 6.04 4 4 C3.34 4 2.68 4 2 4 C2 3.34 2 2.68 2 2 C1.34 2 0.68 2 0 2 C0 1.34 0 0.68 0 0 Z " fill="#ECA13D" transform="translate(368,172)"/>
<path d="M0 0 C0.33 1.32 0.66 2.64 1 4 C0.34 4 -0.32 4 -1 4 C-1.28875 5.093125 -1.5775 6.18625 -1.875 7.3125 C-3 11 -3 11 -5 14 C-5.66 14 -6.32 14 -7 14 C-5.23570801 9.02790438 -2.6060834 4.56561939 0 0 Z " fill="#2276B1" transform="translate(105,361)"/>
<path d="M0 0 C1.32 0.66 2.64 1.32 4 2 C3.01 2.495 3.01 2.495 2 3 C2.99 3.66 3.98 4.32 5 5 C4.030625 5.12375 3.06125 5.2475 2.0625 5.375 C0.5465625 5.684375 0.5465625 5.684375 -1 6 C-1.33 6.66 -1.66 7.32 -2 8 C-2.66 7.34 -3.32 6.68 -4 6 C-3.0022242 3.00667261 -2.2477975 2.05233685 0 0 Z " fill="#194693" transform="translate(377,505)"/>
<path d="M0 0 C-0.804375 0.45375 -1.60875 0.9075 -2.4375 1.375 C-5.08856572 2.74725665 -5.08856572 2.74725665 -6 5 C-7.98 5 -9.96 5 -12 5 C-11.67 4.01 -11.34 3.02 -11 2 C-9.00390625 1.015625 -9.00390625 1.015625 -6.5625 0.25 C-5.75941406 -0.01296875 -4.95632813 -0.2759375 -4.12890625 -0.546875 C-2 -1 -2 -1 0 0 Z " fill="#DCECF1" transform="translate(406,483)"/>
<path d="M0 0 C7.75 -0.125 7.75 -0.125 10 1 C10 1.66 10 2.32 10 3 C11.98 3.66 13.96 4.32 16 5 C15.01 5.495 15.01 5.495 14 6 C12.30744574 5.30306589 10.61732097 4.59811128 8.953125 3.8359375 C6.03756904 2.58807955 3.06278598 1.81257587 0 1 C0 0.67 0 0.34 0 0 Z " fill="#2277B3" transform="translate(216,480)"/>
<path d="M0 0 C0.99 0.33 1.98 0.66 3 1 C3 2.32 3 3.64 3 5 C2.01 5.33 1.02 5.66 0 6 C-1.66710346 7.49985609 -1.66710346 7.49985609 -3 9 C-3.33 8.01 -3.66 7.02 -4 6 C-2.0625 2.8125 -2.0625 2.8125 0 0 Z " fill="#20418A" transform="translate(45,467)"/>
<path d="M0 0 C3.53696692 0.34676146 5.38140601 1.16666342 8.1875 3.3125 C8.1875 3.9725 8.1875 4.6325 8.1875 5.3125 C3.8975 4.3225 -0.3925 3.3325 -4.8125 2.3125 C-2.8125 0.3125 -2.8125 0.3125 0 0 Z " fill="#2078B9" transform="translate(168.8125,463.6875)"/>
<path d="M0 0 C1.75570313 0.02707031 1.75570313 0.02707031 3.546875 0.0546875 C4.88492187 0.08949219 4.88492187 0.08949219 6.25 0.125 C6.25 0.455 6.25 0.785 6.25 1.125 C-5.27164009 3.60563781 -5.27164009 3.60563781 -10.75 2.125 C-7.15537669 -0.13498595 -4.18404325 -0.08368087 0 0 Z " fill="#1769A8" transform="translate(498.75,455.875)"/>
<path d="M0 0 C4.29 0 8.58 0 13 0 C13 0.33 13 0.66 13 1 C8.49646738 2.75747614 4.82360189 3.19294408 0 3 C0 2.01 0 1.02 0 0 Z " fill="#116FB1" transform="translate(512,452)"/>
<path d="M0 0 C-1.36944102 2.94956528 -2.87830409 5.52468811 -5 8 C-5.66 8 -6.32 8 -7 8 C-7.33 8.66 -7.66 9.32 -8 10 C-8.33 9.01 -8.66 8.02 -9 7 C-7.88121617 5.82737096 -6.75476949 4.66204862 -5.625 3.5 C-4.68527344 2.52546875 -4.68527344 2.52546875 -3.7265625 1.53125 C-2 0 -2 0 0 0 Z " fill="#146FB1" transform="translate(310,79)"/>
<path d="M0 0 C-0.33 1.32 -0.66 2.64 -1 4 C-4.3 4 -7.6 4 -11 4 C-7.32740617 1.55160412 -4.45351799 0 0 0 Z " fill="#2176B6" transform="translate(466,444)"/>
<path d="M0 0 C0.33 0.99 0.66 1.98 1 3 C-0.32 3.33 -1.64 3.66 -3 4 C-3 4.66 -3 5.32 -3 6 C-4.32 6 -5.64 6 -7 6 C-7 6.66 -7 7.32 -7 8 C-7.99 7.67 -8.98 7.34 -10 7 C-6.80331012 4.3513141 -3.60513403 2.06007659 0 0 Z " fill="#1876B3" transform="translate(303,522)"/>
<path d="M0 0 C2.62697064 -0.22137393 5.00893964 -0.28162025 7.625 -0.1875 C8.33140625 -0.17396484 9.0378125 -0.16042969 9.765625 -0.14648438 C11.51074128 -0.1111104 13.25546608 -0.05730221 15 0 C15 0.33 15 0.66 15 1 C11.37 1 7.74 1 4 1 C4 1.66 4 2.32 4 3 C2.02 3 0.04 3 -2 3 C-1.34 2.01 -0.68 1.02 0 0 Z " fill="#174996" transform="translate(500,489)"/>
<path d="M0 0 C1.79323253 0.28187936 3.58457126 0.5758281 5.375 0.875 C6.37273437 1.03742188 7.37046875 1.19984375 8.3984375 1.3671875 C11 2 11 2 13 4 C10.69 4.33 8.38 4.66 6 5 C6 4.34 6 3.68 6 3 C5.38125 2.87625 4.7625 2.7525 4.125 2.625 C2 2 2 2 0 0 Z " fill="#11357D" transform="translate(184,483)"/>
<path d="M0 0 C0.33 0 0.66 0 1 0 C1.33 4.62 1.66 9.24 2 14 C0.29115995 12.37660195 -1.37446717 10.70680947 -3 9 C-3 8.34 -3 7.68 -3 7 C-2.34 7 -1.68 7 -1 7 C-0.67 4.69 -0.34 2.38 0 0 Z " fill="#336EAB" transform="translate(320,319)"/>
<path d="M0 0 C-3.96 1.32 -7.92 2.64 -12 4 C-12 2.68 -12 1.36 -12 0 C-10.56359829 -0.19573608 -9.12580496 -0.38127816 -7.6875 -0.5625 C-6.88699219 -0.66691406 -6.08648437 -0.77132813 -5.26171875 -0.87890625 C-3 -1 -3 -1 0 0 Z " fill="#186FB0" transform="translate(412,480)"/>
<path d="M0 0 C-0.33 1.32 -0.66 2.64 -1 4 C-4.375 4.625 -4.375 4.625 -8 5 C-8.66 4.34 -9.32 3.68 -10 3 C-8.70990357 2.49596232 -7.41786211 1.99690074 -6.125 1.5 C-5.04605469 1.08234375 -5.04605469 1.08234375 -3.9453125 0.65625 C-2 0 -2 0 0 0 Z " fill="#2079B9" transform="translate(416,351)"/>
<path d="M0 0 C0.33 1.32 0.66 2.64 1 4 C0.34 4 -0.32 4 -1 4 C-1.0825 4.928125 -1.165 5.85625 -1.25 6.8125 C-2 10 -2 10 -4.0625 11.875 C-5.0215625 12.431875 -5.0215625 12.431875 -6 13 C-4.58707905 8.1725201 -2.57025846 4.2837641 0 0 Z " fill="#186FAE" transform="translate(117,339)"/>
<path d="M0 0 C-2.31 1.65 -4.62 3.3 -7 5 C-7 4.34 -7 3.68 -7 3 C-8.65 3 -10.3 3 -12 3 C-8.52582963 0.68388642 -4.04642977 -2.02321489 0 0 Z " fill="#3171AD" transform="translate(423,105)"/>
<path d="M0 0 C1.50433594 0.01353516 1.50433594 0.01353516 3.0390625 0.02734375 C3.80992187 0.03894531 4.58078125 0.05054688 5.375 0.0625 C1.7157937 2.02912189 -1.45528311 2.75363208 -5.625 3.0625 C-6.285 2.4025 -6.945 1.7425 -7.625 1.0625 C-4.98041621 -0.25979189 -2.94738699 -0.03427194 0 0 Z " fill="#1A6FB0" transform="translate(459.625,463.9375)"/>
<path d="M0 0 C3.67952474 4.90603299 3.29124516 6.17509683 3 12 C2.01 12.495 2.01 12.495 1 13 C0.67 8.71 0.34 4.42 0 0 Z " fill="#156EB3" transform="translate(269,198)"/>
<path d="M0 0 C0 3 0 3 -2.5 5.6875 C-3.325 6.450625 -4.15 7.21375 -5 8 C-5.66 7.34 -6.32 6.68 -7 6 C-2.25 1.125 -2.25 1.125 0 0 Z " fill="#EDA03D" transform="translate(229,193)"/>
<path d="M0 0 C2.01822917 0.06510417 4.03645833 0.13020833 6.0546875 0.1953125 C5.7246875 1.5153125 5.3946875 2.8353125 5.0546875 4.1953125 C0.5996875 3.2053125 0.5996875 3.2053125 -3.9453125 2.1953125 C-1.9453125 0.1953125 -1.9453125 0.1953125 0 0 Z " fill="#1C77BA" transform="translate(209.9453125,475.8046875)"/>
<path d="M0 0 C-1.20703125 1.51953125 -1.20703125 1.51953125 -3 3 C-5.26171875 3.07421875 -5.26171875 3.07421875 -7.6875 2.6875 C-8.89986328 2.50767578 -8.89986328 2.50767578 -10.13671875 2.32421875 C-10.75160156 2.21722656 -11.36648438 2.11023438 -12 2 C-7.57703297 -0.94864468 -5.15145854 -1.28786464 0 0 Z " fill="#1E79BA" transform="translate(441,345)"/>
<path d="M0 0 C2.12046792 3.53411321 2.53199289 6.94393835 3 11 C2.01 10.67 1.02 10.34 0 10 C-1.125 2.25 -1.125 2.25 0 0 Z " fill="#176FAE" transform="translate(286,122)"/>
<path d="M0 0 C0.66 0.66 1.32 1.32 2 2 C-1.375 8.75 -1.375 8.75 -7 11 C-4.69 7.37 -2.38 3.74 0 0 Z " fill="#D2EAF2" transform="translate(350,115)"/>
<path d="M0 0 C4.75481646 0.57634139 7.97048212 2.55068521 12 5 C9.30439815 6.34780093 8.257383 5.67336458 5.4375 4.75 C4.22900391 4.37101563 4.22900391 4.37101563 2.99609375 3.984375 C2.33738281 3.65953125 1.67867188 3.3346875 1 3 C0.67 2.01 0.34 1.02 0 0 Z " fill="#3E528D" transform="translate(265,515)"/>
<path d="M0 0 C1.21816406 0.03480469 1.21816406 0.03480469 2.4609375 0.0703125 C3.68683594 0.09738281 3.68683594 0.09738281 4.9375 0.125 C5.87722656 0.15980469 5.87722656 0.15980469 6.8359375 0.1953125 C6.8359375 0.8553125 6.8359375 1.5153125 6.8359375 2.1953125 C2.81789059 3.03629906 -0.18209793 3.24936195 -4.1640625 2.1953125 C-2.1640625 0.1953125 -2.1640625 0.1953125 0 0 Z " fill="#1E4190" transform="translate(225.1640625,503.8046875)"/>
<path d="M0 0 C2.97 0 5.94 0 9 0 C9.33 1.32 9.66 2.64 10 4 C6.7 3.01 3.4 2.02 0 1 C0 0.67 0 0.34 0 0 Z " fill="#2874B2" transform="translate(233,486)"/>
<path d="M0 0 C0.66 0 1.32 0 2 0 C2.45375 0.474375 2.9075 0.94875 3.375 1.4375 C5.22977487 3.22093737 6.50135592 3.5691993 9 4 C8.67 4.66 8.34 5.32 8 6 C4.37 5.01 0.74 4.02 -3 3 C-2.01 2.01 -1.02 1.02 0 0 Z " fill="#146CAD" transform="translate(187,468)"/>
<path d="M0 0 C-0.66 1.32 -1.32 2.64 -2 4 C-4.97 4 -7.94 4 -11 4 C-7.61125486 1.74083657 -4.15175481 0 0 0 Z " fill="#C9E5EC" transform="translate(432,356)"/>
<path d="M0 0 C1.8871875 0.0309375 1.8871875 0.0309375 3.8125 0.0625 C0.95771674 1.96568884 -0.60691308 2.5244099 -3.875 3.1875 C-4.68324219 3.35507812 -5.49148438 3.52265625 -6.32421875 3.6953125 C-6.93910156 3.81648438 -7.55398438 3.93765625 -8.1875 4.0625 C-7.8575 3.0725 -7.5275 2.0825 -7.1875 1.0625 C-4.43671116 0.14557039 -2.82801087 -0.04636083 0 0 Z " fill="#1A70AC" transform="translate(440.1875,351.9375)"/>
<path d="M0 0 C2.60018816 3.90028225 2.15085514 7.47434569 2 12 C1.01 12 0.02 12 -1 12 C-1.08159574 7.83861737 -0.98248524 4.0527516 0 0 Z " fill="#1469A9" transform="translate(275,70)"/>
<path d="M0 0 C0 0.33 0 0.66 0 1 C-0.7425 1.144375 -1.485 1.28875 -2.25 1.4375 C-4.88718794 1.92437184 -4.88718794 1.92437184 -6.9375 2.625 C-9.77743461 3.14135175 -12.19608697 2.57352767 -15 2 C-15 1.67 -15 1.34 -15 1 C-9.94997778 -0.03590199 -5.12583611 -0.10251672 0 0 Z " fill="#1C4992" transform="translate(475,492)"/>
<path d="M0 0 C-6.4 3.07692308 -6.4 3.07692308 -9.4375 2.6875 C-9.953125 2.460625 -10.46875 2.23375 -11 2 C-6.98764085 -0.6749061 -4.6342454 -1.48957888 0 0 Z " fill="#1470B0" transform="translate(498,436)"/>
<path d="M0 0 C0.99 0 1.98 0 3 0 C3 3.63 3 7.26 3 11 C1.04783565 7.09567131 0.49360009 4.27786748 0 0 Z " fill="#146BA7" transform="translate(501,370)"/>
<path d="M0 0 C0.66 0 1.32 0 2 0 C2.25 7.625 2.25 7.625 0 11 C-0.19491452 9.54263913 -0.38069358 8.08405407 -0.5625 6.625 C-0.66691406 5.81289062 -0.77132813 5.00078125 -0.87890625 4.1640625 C-1 2 -1 2 0 0 Z " fill="#F3EAD5" transform="translate(484,166)"/>
<path d="M0 0 C0 4.16207365 -0.19112905 6.11759533 -3.0625 9.25 C-3.701875 9.8275 -4.34125 10.405 -5 11 C-5.66 10.67 -6.32 10.34 -7 10 C-3.535 5.05 -3.535 5.05 0 0 Z " fill="#DCF2F9" transform="translate(365,163)"/>
<path d="M0 0 C2 2 2 2 2.1953125 4.8203125 C2.16050781 6.45613281 2.16050781 6.45613281 2.125 8.125 C2.10695313 9.22070312 2.08890625 10.31640625 2.0703125 11.4453125 C2.04710937 12.28835937 2.02390625 13.13140625 2 14 C1.67 14 1.34 14 1 14 C0.63906896 11.85529407 0.28642411 9.70919203 -0.0625 7.5625 C-0.25972656 6.36753906 -0.45695312 5.17257813 -0.66015625 3.94140625 C-0.77230469 2.97074219 -0.88445312 2.00007812 -1 1 C-0.67 0.67 -0.34 0.34 0 0 Z " fill="#1276BD" transform="translate(265,158)"/>
<path d="M0 0 C3.3 0 6.6 0 10 0 C10.33 0.66 10.66 1.32 11 2 C6.99799622 3.60080151 3.95443764 2.29279692 0 1 C0 0.67 0 0.34 0 0 Z " fill="#123B88" transform="translate(228,506)"/>
<path d="M0 0 C0.99 0 1.98 0 3 0 C3 2.31 3 4.62 3 7 C2.01 7.495 2.01 7.495 1 8 C0.67 5.36 0.34 2.72 0 0 Z " fill="#1B72B4" transform="translate(509,402)"/>
<path d="M0 0 C-1.44253657 3.36591866 -3.33264727 5.51047079 -6 8 C-6 6.02 -6 4.04 -6 2 C-2.25 0 -2.25 0 0 0 Z " fill="#E79A37" transform="translate(256,174)"/>
<path d="M0 0 C2.83022097 3.99560608 1.76210446 7.42737323 1 12 C-1.44576827 8.33134759 -1.23607254 6.32799657 -1 2 C-0.67 1.34 -0.34 0.68 0 0 Z " fill="#F0E6D6" transform="translate(141,166)"/>
<path d="M0 0 C-5.75 4 -5.75 4 -8 4 C-7.6875 2.0625 -7.6875 2.0625 -7 0 C-3.86650268 -1.04449911 -3.01031744 -0.93423645 0 0 Z " fill="#2074B6" transform="translate(344,125)"/>
<path d="M0 0 C1.98 0 3.96 0 6 0 C6.33 1.32 6.66 2.64 7 4 C5.35 4.33 3.7 4.66 2 5 C2 4.34 2 3.68 2 3 C1.34 2.67 0.68 2.34 0 2 C0 1.34 0 0.68 0 0 Z " fill="#076BB8" transform="translate(256,491)"/>
<path d="M0 0 C3.3 0.99 6.6 1.98 10 3 C10 3.33 10 3.66 10 4 C3.6 4.36923077 3.6 4.36923077 0.5625 2.5 C0.046875 2.005 -0.46875 1.51 -1 1 C-0.67 0.67 -0.34 0.34 0 0 Z " fill="#216FAA" transform="translate(177,450)"/>
<path d="M0 0 C6.0546875 -0.1953125 6.0546875 -0.1953125 8 0 C8.66 0.66 9.32 1.32 10 2 C7.21136993 3.39431504 5.07921132 3.25660094 2 3 C1.34 2.01 0.68 1.02 0 0 Z " fill="#166CAA" transform="translate(152,337)"/>
<path d="M0 0 C0.66 0.66 1.32 1.32 2 2 C0.90716423 3.03295436 -0.19970579 4.05107835 -1.3125 5.0625 C-1.92738281 5.63097656 -2.54226563 6.19945313 -3.17578125 6.78515625 C-3.77777344 7.18605469 -4.37976563 7.58695312 -5 8 C-5.99 7.67 -6.98 7.34 -8 7 C-5.36 4.69 -2.72 2.38 0 0 Z " fill="#DBEDEF" transform="translate(406,118)"/>
<path d="M0 0 C7.50769231 -0.36923077 7.50769231 -0.36923077 10 1.5 C10.495 2.2425 10.495 2.2425 11 3 C8.69 3 6.38 3 4 3 C4 2.34 4 1.68 4 1 C2.68 0.67 1.36 0.34 0 0 Z " fill="#163780" transform="translate(168,494)"/>
<path d="M0 0 C0.33 0.99 0.66 1.98 1 3 C-1.8125 4.5625 -1.8125 4.5625 -5 6 C-5.99 5.67 -6.98 5.34 -8 5 C-4.04 2.525 -4.04 2.525 0 0 Z " fill="#1C73B0" transform="translate(375,484)"/>
<path d="M0 0 C1.3921875 0.0928125 1.3921875 0.0928125 2.8125 0.1875 C2.8125 1.1775 2.8125 2.1675 2.8125 3.1875 C-0.1575 3.1875 -3.1275 3.1875 -6.1875 3.1875 C-3.1875 0.1875 -3.1875 0.1875 0 0 Z " fill="#274991" transform="translate(513.1875,468.8125)"/>
<path d="M0 0 C2.1519437 3.22791555 2.20086443 4.28400809 2 8 C1.01 8 0.02 8 -1 8 C-0.67 5.36 -0.34 2.72 0 0 Z " fill="#D3EEF3" transform="translate(513,423)"/>
<path d="M0 0 C0.88492145 2.47778006 1.11637742 3.66056586 0.25 6.1875 C-1 8 -1 8 -4 9 C-2.94124926 5.59687262 -1.99097846 2.98646769 0 0 Z " fill="#1D72AF" transform="translate(71,423)"/>
<path d="M0 0 C3.37462715 0.54723683 5.08235 1.0549 8 3 C7 4 7 4 4.4375 4.0625 C3.2309375 4.0315625 3.2309375 4.0315625 2 4 C1.34 2.68 0.68 1.36 0 0 Z " fill="#E8F5F2" transform="translate(214,364)"/>
<path d="M0 0 C0.66 0.33 1.32 0.66 2 1 C1.43628586 4.26954202 0.50037734 5.82575883 -2 8 C-2.33 7.34 -2.66 6.68 -3 6 C-2.06553465 3.96855359 -1.06775224 1.96466413 0 0 Z " fill="#1873B3" transform="translate(109,353)"/>
<path d="M0 0 C2 1 2 1 2.6328125 2.84765625 C2.79523438 3.57855469 2.95765625 4.30945313 3.125 5.0625 C3.29257813 5.79597656 3.46015625 6.52945312 3.6328125 7.28515625 C3.75398437 7.85105469 3.87515625 8.41695313 4 9 C2.35 8.01 0.7 7.02 -1 6 C-0.67 4.02 -0.34 2.04 0 0 Z " fill="#E79C3C" transform="translate(226,339)"/>
<path d="M0 0 C4.75 0.75 4.75 0.75 7 3 C5.35 3.33 3.7 3.66 2 4 C2 3.34 2 2.68 2 2 C1.34 2 0.68 2 0 2 C0 1.34 0 0.68 0 0 Z " fill="#E6F4F3" transform="translate(246,492)"/>
<path d="M0 0 C-2.6855594 2.6855594 -5.37621328 3.06049974 -9 4 C-8.67 3.01 -8.34 2.02 -8 1 C-5.29120665 -0.35439668 -2.99066732 -0.06501451 0 0 Z " fill="#1F6CA7" transform="translate(387,488)"/>
<path d="M0 0 C0 0.33 0 0.66 0 1 C-6.625 2.25 -6.625 2.25 -10 0 C-6.7169902 -1.6415049 -3.57454967 -0.51888624 0 0 Z " fill="#10327D" transform="translate(166,478)"/>
<path d="M0 0 C2.64 0 5.28 0 8 0 C4.55549263 2.29633824 2.06187717 2.54016485 -2 3 C-1.34 2.67 -0.68 2.34 0 2 C0 1.34 0 0.68 0 0 Z " fill="#166DAE" transform="translate(420,474)"/>
<path d="M0 0 C0.33 0.99 0.66 1.98 1 3 C-0.32 3.99 -1.64 4.98 -3 6 C-3.66 5.34 -4.32 4.68 -5 4 C-3.35 2.68 -1.7 1.36 0 0 Z " fill="#1774B0" transform="translate(333,397)"/>
<path d="M0 0 C0.66 1.32 1.32 2.64 2 4 C0.68 5.32 -0.64 6.64 -2 8 C-2.33 7.34 -2.66 6.68 -3 6 C-2.06553465 3.96855359 -1.06775224 1.96466413 0 0 Z " fill="#1975B6" transform="translate(92,384)"/>
<path d="M0 0 C0 0.99 0 1.98 0 3 C-2.97 3.66 -5.94 4.32 -9 5 C-2.87096774 0 -2.87096774 0 0 0 Z " fill="#2970A0" transform="translate(384,365)"/>
<path d="M0 0 C6.625 0.75 6.625 0.75 10 3 C7.36 3 4.72 3 2 3 C2 2.34 2 1.68 2 1 C1.34 0.67 0.68 0.34 0 0 Z " fill="#1C68A4" transform="translate(182,343)"/>
<path d="M0 0 C4.42857143 5.14285714 4.42857143 5.14285714 5 9 C2.5 6.75 2.5 6.75 0 4 C0 2.68 0 1.36 0 0 Z " fill="#1C72AE" transform="translate(508,339)"/>
<path d="M0 0 C0.33 0 0.66 0 1 0 C1 2.31 1 4.62 1 7 C0.34 7 -0.32 7 -1 7 C-1 7.66 -1 8.32 -1 9 C-1.66 9 -2.32 9 -3 9 C-2.01 6.03 -1.02 3.06 0 0 Z " fill="#F7E6B8" transform="translate(227,225)"/>
<path d="M0 0 C0.99 0 1.98 0 3 0 C3.33 1.98 3.66 3.96 4 6 C3.01 6.33 2.02 6.66 1 7 C0.67 4.69 0.34 2.38 0 0 Z " fill="#1E72AF" transform="translate(272,218)"/>
<path d="M0 0 C0.33 0.99 0.66 1.98 1 3 C0.34 3 -0.32 3 -1 3 C-1.66 4.32 -2.32 5.64 -3 7 C-3.99 6.67 -4.98 6.34 -6 6 C-4.60755361 3.21510722 -2.44008012 1.87698471 0 0 Z " fill="#367DAF" transform="translate(309,167)"/>
<path d="M0 0 C0.99 0 1.98 0 3 0 C3.33 2.97 3.66 5.94 4 9 C1.49701566 6.06171403 0.53069061 3.82097239 0 0 Z " fill="#2E7AB3" transform="translate(276,86)"/>
<path d="M0 0 C0.33 0 0.66 0 1 0 C1 1.65 1 3.3 1 5 C1.66 5 2.32 5 3 5 C3 5.66 3 6.32 3 7 C1.68 7.99 0.36 8.98 -1 10 C-0.67 6.7 -0.34 3.4 0 0 Z " fill="#1168AE" transform="translate(271,63)"/>
</svg>
